<?xml version="1.0" encoding="UTF-8"?>
<svg id="Layer_1" xmlns="http://www.w3.org/2000/svg" version="1.1" viewBox="0 0 164 32">
  <!-- Generator: Adobe Illustrator 29.6.1, SVG Export Plug-In . SVG Version: 2.1.1 Build 9)  -->
  <defs>
    <style>
      .st0 {
        fill: #3e85c5;
      }

      .st1 {
        fill: #1e1e1e;
      }
    </style>
  </defs>
  <g>
    <path class="st0" d="M2,6.8L13.8,0l10,5.8v6.9s-10,5.8-10,5.8v-4.8l5.9-3.4h0c0-.6,0-1.3,0-1.9s0,0,0-.1l-5.9-3.4-7.5,4.4v20.4s-.1.1-.1.1l-4.1,2.3V6.8Z"/>
    <path class="st0" d="M12,21.3v-8.7l5.9-3.4-4.1-2.4-5.9,3.4v11.7s5.9,3.4,5.9,3.4l10.1-5.8v-4.8l-11.8,6.7ZM13.9,8.3h0c0,0,.8,0,.8,0h0v.9h-.9v-.9ZM13.9,9.5h0c0,0,.8,0,.8,0h0v.9h-.9v-.9ZM12.8,8.3h0c0,0,.8,0,.8,0h0v.9h-.9v-.9ZM12.8,9.5h0c0,0,.8,0,.8,0h0v.9h-.9v-.9Z"/>
    <polygon class="st0" points="7.9 23.9 12 26.2 7.9 28.6 7.9 23.9"/>
  </g>
  <g>
    <path class="st1" d="M36.2,23.7h-3.7V7.6h6.5c.7,0,1.5.2,2.1.5.7.3,1.2.7,1.7,1.2.5.5.9,1.1,1.2,1.8.3.7.4,1.4.4,2.1s-.1,1.4-.4,2.1c-.3.7-.7,1.3-1.2,1.8-.5.5-1.1.9-1.7,1.2-.7.3-1.4.5-2.1.5h-2.8v4.9ZM39,15.1c.2,0,.4,0,.6-.2.2-.1.4-.3.6-.4s.3-.4.4-.6.1-.5.1-.7,0-.5-.1-.7c0-.2-.2-.4-.4-.6-.2-.2-.3-.3-.6-.4-.2-.1-.4-.2-.6-.2h-2.8v3.8h2.8Z"/>
    <path class="st1" d="M50.5,7.6h3.2l7,16.1h-2.4c-.2,0-.5,0-.7,0-.2,0-.4-.2-.6-.3-.2-.1-.4-.3-.5-.4-.2-.2-.3-.4-.4-.6l-.8-1.8h-6.4l-.8,1.8c0,.2-.2.4-.4.6s-.3.3-.5.5c-.2.1-.4.2-.6.3-.2,0-.5.1-.7.1h-2.4l7-16.1ZM50.4,17.1h3.4l-1.4-3.4c0-.2-.1-.3-.2-.4,0-.1,0-.3,0-.4,0-.1,0-.2,0-.3,0,.1,0,.2,0,.3,0,.1,0,.2,0,.4,0,.1,0,.3-.2.4l-1.4,3.4Z"/>
    <path class="st1" d="M70.8,20.6c0-.2-.2-.4-.2-.6s0-.3,0-.5,0-.2,0-.2c0,0,0,0,0,0l-1.9,4.5h-3.2l-7-16.1h2.4c.2,0,.5,0,.7.1.2,0,.4.2.6.3.2.1.4.3.5.4.2.2.3.4.4.6l3.7,8.5c0,.1,0,.2.1.4,0,.1,0,.2,0,.3,0,.1,0,.2,0,.4,0-.1,0-.2,0-.4,0-.1,0-.2,0-.3,0-.1,0-.2.1-.4l3.7-8.5c0-.2.2-.4.4-.6.2-.2.3-.3.5-.4.2-.1.4-.2.6-.3.2,0,.5-.1.7-.1h2.4l-3.2,7.3,1,2.6c0,.1,0,.3.1.4,0,.1,0,.2,0,.3,0,.1,0,.2,0,.3,0-.1,0-.2,0-.3,0-.1,0-.2,0-.3,0-.1,0-.2.1-.4l3.7-8.5c0-.2.2-.4.4-.6.2-.2.3-.3.5-.4.2-.1.4-.2.7-.3.2,0,.5-.1.7-.1h2.4l-7,16.1h-3.2l-1.3-3.1Z"/>
    <path class="st1" d="M86.9,7.6h3.2l7,16.1h-2.4c-.2,0-.5,0-.7,0-.2,0-.4-.2-.6-.3-.2-.1-.4-.3-.5-.4-.2-.2-.3-.4-.4-.6l-.8-1.8h-6.4l-.8,1.8c0,.2-.2.4-.4.6-.2.2-.3.3-.5.5-.2.1-.4.2-.6.3-.2,0-.5.1-.7.1h-2.4l7-16.1ZM86.8,17.1h3.4l-1.4-3.4c0-.2-.1-.3-.2-.4,0-.1,0-.3,0-.4,0-.1,0-.2,0-.3,0,.1,0,.2,0,.3,0,.1,0,.2,0,.4,0,.1,0,.3-.2.4l-1.4,3.4Z"/>
    <path class="st1" d="M113.6,23.7h-3.6l-7.7-11.1v11.1h-3.7V7.6h3.6c.4,0,.7,0,1,.2s.5.3.6.5l5.6,8.2c0,.1.2.3.2.4,0,.1.1.3.2.4,0,.1,0,.2.1.3s0,.1,0,.2V7.6h3.7v16.1Z"/>
    <path class="st1" d="M122.4,11.1c-.2,0-.4,0-.6,0-.2,0-.3,0-.5.2-.1,0-.3.2-.3.3,0,.1-.1.2-.1.4,0,.2,0,.4.2.6.1.1.3.3.5.4.2.1.5.2.9.3.4.1.8.2,1.3.4.6.2,1.2.5,1.7.8.5.3.9.7,1.3,1.1s.6.9.8,1.4c.2.5.3,1.1.3,1.7s-.2,1.5-.5,2.1c-.3.6-.8,1.2-1.3,1.7s-1.2.8-1.9,1.1c-.7.3-1.5.4-2.2.4s-1.3,0-1.9-.3c-.6-.2-1.1-.5-1.6-.8-.5-.3-.9-.8-1.3-1.2s-.7-1-.9-1.6l1.2-.7c.2-.1.4-.2.6-.3.2,0,.4,0,.6,0,.3,0,.6,0,.9.2.3.1.5.3.8.4.2.2.5.3.8.4.3.1.6.2.9.2s.5,0,.7-.1c.3,0,.5-.2.7-.3.2-.1.4-.3.6-.5.1-.2.2-.4.2-.7s0-.4-.2-.6c-.1-.2-.3-.3-.6-.4s-.5-.2-.8-.3c-.3,0-.6-.2-1-.3-.6-.2-1.1-.4-1.6-.7s-1-.6-1.4-.9-.8-.8-1-1.3c-.3-.5-.4-1.2-.4-1.9s.1-1.4.4-1.9.7-1,1.2-1.4c.5-.4,1-.7,1.7-.9.6-.2,1.3-.3,1.9-.3s.9,0,1.4.2c.5.2.9.4,1.3.6s.8.6,1.1.9c.4.3.7.7,1,1l-1.1,1c-.2.2-.5.3-.7.4-.2,0-.5.1-.8.1s-.4,0-.6,0c-.2,0-.3-.1-.5-.2-.2,0-.3-.1-.5-.2-.2,0-.3,0-.5,0Z"/>
    <path class="st1" d="M134.2,17.2c0,.4,0,.8.2,1.1.2.4.4.7.7.9.3.3.6.5,1,.6.4.2.7.2,1.1.2s.8,0,1.1-.2c.4-.2.7-.4,1-.6.3-.3.5-.6.7-.9.2-.4.2-.7.2-1.1V7.6h3.7v9.6c0,.9-.2,1.8-.5,2.6-.4.8-.8,1.5-1.4,2.1-.6.6-1.3,1.1-2.1,1.4-.8.3-1.7.5-2.6.5s-1.2,0-1.8-.2c-.6-.2-1.1-.4-1.6-.7s-.9-.6-1.4-1-.8-.8-1.1-1.3c-.3-.5-.5-1-.7-1.6-.2-.6-.2-1.2-.2-1.8V7.6h3.7v9.6Z"/>
    <path class="st1" d="M146,11v-3.4h12.6v3.4h-4.5v12.6h-3.7v-12.6h-4.5Z"/>
  </g>
</svg>